<?xml version="1.0" encoding="utf-8" standalone="no"?>
<!DOCTYPE svg PUBLIC "-//W3C//DTD SVG 1.1//EN"
  "http://www.w3.org/Graphics/SVG/1.1/DTD/svg11.dtd">
<svg xmlns:xlink="http://www.w3.org/1999/xlink" width="462.297747pt" height="251.278125pt" viewBox="0 0 462.297747 251.278125" xmlns="http://www.w3.org/2000/svg" version="1.1">
 <metadata>
  <rdf:RDF xmlns:dc="http://purl.org/dc/elements/1.1/" xmlns:cc="http://creativecommons.org/ns#" xmlns:rdf="http://www.w3.org/1999/02/22-rdf-syntax-ns#">
   <cc:Work>
    <dc:type rdf:resource="http://purl.org/dc/dcmitype/StillImage"/>
    <dc:format>image/svg+xml</dc:format>
    <dc:creator>
     <cc:Agent>
      <dc:title>Matplotlib v3.11.1, https://matplotlib.org/</dc:title>
     </cc:Agent>
    </dc:creator>
   </cc:Work>
  </rdf:RDF>
 </metadata>
 <defs>
  <style type="text/css">*{stroke-linejoin: round; stroke-linecap: butt}</style>
 </defs>
 <g id="figure_1">
  <g id="patch_1">
   <path d="M 0 251.278125 
L 462.297747 251.278125 
L 462.297747 0 
L 0 0 
z
" style="fill: #ffffff"/>
  </g>
  <g id="axes_1">
   <g id="patch_2">
    <path d="M 231.897802 32.398125 
C 206.206124 32.398125 181.461996 42.220477 162.764873 59.840917 
C 144.06775 77.461356 132.796791 101.580145 131.2748 127.226701 
C 129.752809 152.873257 138.092053 178.155811 154.573917 197.863942 
C 171.055781 217.572073 194.464512 230.25205 219.975862 233.290686 
L 231.897802 133.198158 
z
" style="fill: #f28e2b"/>
   </g>
   <g id="patch_3">
    <path d="M 219.975862 233.290686 
C 236.372511 235.243678 253.000606 233.138054 268.392893 227.159613 
C 283.785181 221.181173 297.475203 211.511091 308.25496 199.00265 
C 319.034717 186.494209 326.577532 171.526472 330.217832 155.420185 
C 333.858131 139.313898 333.485597 122.557155 329.133101 106.628563 
L 231.897802 133.198158 
z
" style="fill: #4e79a7"/>
   </g>
   <g id="patch_4">
    <path d="M 329.133101 106.628563 
C 323.307743 85.309818 310.629807 66.487276 293.063277 53.076804 
C 275.496747 39.666333 253.998112 32.398125 231.897802 32.398125 
L 231.897802 133.198158 
z
" style="fill: #59a14f"/>
   </g>
   <g id="matplotlib.axis_1"/>
   <g id="matplotlib.axis_2"/>
   <g id="text_1">
    <!-- Tool Req With Test Link -->
    <g transform="translate(7.2 129.227602) scale(0.1 -0.1)">
     <defs>
      <path id="DejaVuSans-37" d="M -19 4666 
L 3928 4666 
L 3928 4134 
L 2272 4134 
L 2272 0 
L 1638 0 
L 1638 4134 
L -19 4134 
L -19 4666 
z
" transform="scale(0.015625)"/>
      <path id="DejaVuSans-52" d="M 1959 3097 
Q 1497 3097 1228 2736 
Q 959 2375 959 1747 
Q 959 1119 1226 758 
Q 1494 397 1959 397 
Q 2419 397 2687 759 
Q 2956 1122 2956 1747 
Q 2956 2369 2687 2733 
Q 2419 3097 1959 3097 
z
M 1959 3584 
Q 2709 3584 3137 3096 
Q 3566 2609 3566 1747 
Q 3566 888 3137 398 
Q 2709 -91 1959 -91 
Q 1206 -91 779 398 
Q 353 888 353 1747 
Q 353 2609 779 3096 
Q 1206 3584 1959 3584 
z
" transform="scale(0.015625)"/>
      <path id="DejaVuSans-4f" d="M 603 4863 
L 1178 4863 
L 1178 0 
L 603 0 
L 603 4863 
z
" transform="scale(0.015625)"/>
      <path id="DejaVuSans-3" transform="scale(0.015625)"/>
      <path id="DejaVuSans-35" d="M 2841 2188 
Q 3044 2119 3236 1894 
Q 3428 1669 3622 1275 
L 4263 0 
L 3584 0 
L 2988 1197 
Q 2756 1666 2539 1819 
Q 2322 1972 1947 1972 
L 1259 1972 
L 1259 0 
L 628 0 
L 628 4666 
L 2053 4666 
Q 2853 4666 3247 4331 
Q 3641 3997 3641 3322 
Q 3641 2881 3436 2590 
Q 3231 2300 2841 2188 
z
M 1259 4147 
L 1259 2491 
L 2053 2491 
Q 2509 2491 2742 2702 
Q 2975 2913 2975 3322 
Q 2975 3731 2742 3939 
Q 2509 4147 2053 4147 
L 1259 4147 
z
" transform="scale(0.015625)"/>
      <path id="DejaVuSans-48" d="M 3597 1894 
L 3597 1613 
L 953 1613 
Q 991 1019 1311 708 
Q 1631 397 2203 397 
Q 2534 397 2845 478 
Q 3156 559 3463 722 
L 3463 178 
Q 3153 47 2828 -22 
Q 2503 -91 2169 -91 
Q 1331 -91 842 396 
Q 353 884 353 1716 
Q 353 2575 817 3079 
Q 1281 3584 2069 3584 
Q 2775 3584 3186 3129 
Q 3597 2675 3597 1894 
z
M 3022 2063 
Q 3016 2534 2758 2815 
Q 2500 3097 2075 3097 
Q 1594 3097 1305 2825 
Q 1016 2553 972 2059 
L 3022 2063 
z
" transform="scale(0.015625)"/>
      <path id="DejaVuSans-54" d="M 947 1747 
Q 947 1113 1208 752 
Q 1469 391 1925 391 
Q 2381 391 2643 752 
Q 2906 1113 2906 1747 
Q 2906 2381 2643 2742 
Q 2381 3103 1925 3103 
Q 1469 3103 1208 2742 
Q 947 2381 947 1747 
z
M 2906 525 
Q 2725 213 2448 61 
Q 2172 -91 1784 -91 
Q 1150 -91 751 415 
Q 353 922 353 1747 
Q 353 2572 751 3078 
Q 1150 3584 1784 3584 
Q 2172 3584 2448 3432 
Q 2725 3281 2906 2969 
L 2906 3500 
L 3481 3500 
L 3481 -1331 
L 2906 -1331 
L 2906 525 
z
" transform="scale(0.015625)"/>
      <path id="DejaVuSans-3a" d="M 213 4666 
L 850 4666 
L 1831 722 
L 2809 4666 
L 3519 4666 
L 4500 722 
L 5478 4666 
L 6119 4666 
L 4947 0 
L 4153 0 
L 3169 4050 
L 2175 0 
L 1381 0 
L 213 4666 
z
" transform="scale(0.015625)"/>
      <path id="DejaVuSans-4c" d="M 603 3500 
L 1178 3500 
L 1178 0 
L 603 0 
L 603 3500 
z
M 603 4863 
L 1178 4863 
L 1178 4134 
L 603 4134 
L 603 4863 
z
" transform="scale(0.015625)"/>
      <path id="DejaVuSans-57" d="M 1172 4494 
L 1172 3500 
L 2356 3500 
L 2356 3053 
L 1172 3053 
L 1172 1153 
Q 1172 725 1289 603 
Q 1406 481 1766 481 
L 2356 481 
L 2356 0 
L 1766 0 
Q 1100 0 847 248 
Q 594 497 594 1153 
L 594 3053 
L 172 3053 
L 172 3500 
L 594 3500 
L 594 4494 
L 1172 4494 
z
" transform="scale(0.015625)"/>
      <path id="DejaVuSans-4b" d="M 3513 2113 
L 3513 0 
L 2938 0 
L 2938 2094 
Q 2938 2591 2744 2837 
Q 2550 3084 2163 3084 
Q 1697 3084 1428 2787 
Q 1159 2491 1159 1978 
L 1159 0 
L 581 0 
L 581 4863 
L 1159 4863 
L 1159 2956 
Q 1366 3272 1645 3428 
Q 1925 3584 2291 3584 
Q 2894 3584 3203 3211 
Q 3513 2838 3513 2113 
z
" transform="scale(0.015625)"/>
      <path id="DejaVuSans-56" d="M 2834 3397 
L 2834 2853 
Q 2591 2978 2328 3040 
Q 2066 3103 1784 3103 
Q 1356 3103 1142 2972 
Q 928 2841 928 2578 
Q 928 2378 1081 2264 
Q 1234 2150 1697 2047 
L 1894 2003 
Q 2506 1872 2764 1633 
Q 3022 1394 3022 966 
Q 3022 478 2636 193 
Q 2250 -91 1575 -91 
Q 1294 -91 989 -36 
Q 684 19 347 128 
L 347 722 
Q 666 556 975 473 
Q 1284 391 1588 391 
Q 1994 391 2212 530 
Q 2431 669 2431 922 
Q 2431 1156 2273 1281 
Q 2116 1406 1581 1522 
L 1381 1569 
Q 847 1681 609 1914 
Q 372 2147 372 2553 
Q 372 3047 722 3315 
Q 1072 3584 1716 3584 
Q 2034 3584 2315 3537 
Q 2597 3491 2834 3397 
z
" transform="scale(0.015625)"/>
      <path id="DejaVuSans-2f" d="M 628 4666 
L 1259 4666 
L 1259 531 
L 3531 531 
L 3531 0 
L 628 0 
L 628 4666 
z
" transform="scale(0.015625)"/>
      <path id="DejaVuSans-51" d="M 3513 2113 
L 3513 0 
L 2938 0 
L 2938 2094 
Q 2938 2591 2744 2837 
Q 2550 3084 2163 3084 
Q 1697 3084 1428 2787 
Q 1159 2491 1159 1978 
L 1159 0 
L 581 0 
L 581 3500 
L 1159 3500 
L 1159 2956 
Q 1366 3272 1645 3428 
Q 1925 3584 2291 3584 
Q 2894 3584 3203 3211 
Q 3513 2838 3513 2113 
z
" transform="scale(0.015625)"/>
      <path id="DejaVuSans-4e" d="M 581 4863 
L 1159 4863 
L 1159 1991 
L 2875 3500 
L 3609 3500 
L 1753 1863 
L 3688 0 
L 2938 0 
L 1159 1709 
L 1159 0 
L 581 0 
L 581 4863 
z
" transform="scale(0.015625)"/>
     </defs>
     <use xlink:href="#DejaVuSans-37"/>
     <use xlink:href="#DejaVuSans-52" transform="translate(44.09375 0)"/>
     <use xlink:href="#DejaVuSans-52" transform="translate(105.28125 0)"/>
     <use xlink:href="#DejaVuSans-4f" transform="translate(166.46875 0)"/>
     <use xlink:href="#DejaVuSans-3" transform="translate(194.25 0)"/>
     <use xlink:href="#DejaVuSans-35" transform="translate(226.03125 0)"/>
     <use xlink:href="#DejaVuSans-48" transform="translate(291.03125 0)"/>
     <use xlink:href="#DejaVuSans-54" transform="translate(352.5625 0)"/>
     <use xlink:href="#DejaVuSans-3" transform="translate(416.046875 0)"/>
     <use xlink:href="#DejaVuSans-3a" transform="translate(447.828125 0)"/>
     <use xlink:href="#DejaVuSans-4c" transform="translate(544.5 0)"/>
     <use xlink:href="#DejaVuSans-57" transform="translate(572.28125 0)"/>
     <use xlink:href="#DejaVuSans-4b" transform="translate(611.484375 0)"/>
     <use xlink:href="#DejaVuSans-3" transform="translate(674.859375 0)"/>
     <use xlink:href="#DejaVuSans-37" transform="translate(706.640625 0)"/>
     <use xlink:href="#DejaVuSans-48" transform="translate(750.734375 0)"/>
     <use xlink:href="#DejaVuSans-56" transform="translate(812.265625 0)"/>
     <use xlink:href="#DejaVuSans-57" transform="translate(864.359375 0)"/>
     <use xlink:href="#DejaVuSans-3" transform="translate(903.5625 0)"/>
     <use xlink:href="#DejaVuSans-2f" transform="translate(935.34375 0)"/>
     <use xlink:href="#DejaVuSans-4c" transform="translate(991.0625 0)"/>
     <use xlink:href="#DejaVuSans-51" transform="translate(1018.84375 0)"/>
     <use xlink:href="#DejaVuSans-4e" transform="translate(1082.21875 0)"/>
    </g>
   </g>
   <g id="text_2">
    <!--  Tool Req With Code Link -->
    <g transform="translate(315.890676 208.181146) scale(0.1 -0.1)">
     <defs>
      <path id="DejaVuSans-26" d="M 4122 4306 
L 4122 3641 
Q 3803 3938 3442 4084 
Q 3081 4231 2675 4231 
Q 1875 4231 1450 3742 
Q 1025 3253 1025 2328 
Q 1025 1406 1450 917 
Q 1875 428 2675 428 
Q 3081 428 3442 575 
Q 3803 722 4122 1019 
L 4122 359 
Q 3791 134 3420 21 
Q 3050 -91 2638 -91 
Q 1578 -91 968 557 
Q 359 1206 359 2328 
Q 359 3453 968 4101 
Q 1578 4750 2638 4750 
Q 3056 4750 3426 4639 
Q 3797 4528 4122 4306 
z
" transform="scale(0.015625)"/>
      <path id="DejaVuSans-47" d="M 2906 2969 
L 2906 4863 
L 3481 4863 
L 3481 0 
L 2906 0 
L 2906 525 
Q 2725 213 2448 61 
Q 2172 -91 1784 -91 
Q 1150 -91 751 415 
Q 353 922 353 1747 
Q 353 2572 751 3078 
Q 1150 3584 1784 3584 
Q 2172 3584 2448 3432 
Q 2725 3281 2906 2969 
z
M 947 1747 
Q 947 1113 1208 752 
Q 1469 391 1925 391 
Q 2381 391 2643 752 
Q 2906 1113 2906 1747 
Q 2906 2381 2643 2742 
Q 2381 3103 1925 3103 
Q 1469 3103 1208 2742 
Q 947 2381 947 1747 
z
" transform="scale(0.015625)"/>
     </defs>
     <use xlink:href="#DejaVuSans-3"/>
     <use xlink:href="#DejaVuSans-37" transform="translate(31.78125 0)"/>
     <use xlink:href="#DejaVuSans-52" transform="translate(75.875 0)"/>
     <use xlink:href="#DejaVuSans-52" transform="translate(137.0625 0)"/>
     <use xlink:href="#DejaVuSans-4f" transform="translate(198.25 0)"/>
     <use xlink:href="#DejaVuSans-3" transform="translate(226.03125 0)"/>
     <use xlink:href="#DejaVuSans-35" transform="translate(257.8125 0)"/>
     <use xlink:href="#DejaVuSans-48" transform="translate(322.8125 0)"/>
     <use xlink:href="#DejaVuSans-54" transform="translate(384.34375 0)"/>
     <use xlink:href="#DejaVuSans-3" transform="translate(447.828125 0)"/>
     <use xlink:href="#DejaVuSans-3a" transform="translate(479.609375 0)"/>
     <use xlink:href="#DejaVuSans-4c" transform="translate(576.28125 0)"/>
     <use xlink:href="#DejaVuSans-57" transform="translate(604.0625 0)"/>
     <use xlink:href="#DejaVuSans-4b" transform="translate(643.265625 0)"/>
     <use xlink:href="#DejaVuSans-3" transform="translate(706.640625 0)"/>
     <use xlink:href="#DejaVuSans-26" transform="translate(738.421875 0)"/>
     <use xlink:href="#DejaVuSans-52" transform="translate(808.25 0)"/>
     <use xlink:href="#DejaVuSans-47" transform="translate(869.4375 0)"/>
     <use xlink:href="#DejaVuSans-48" transform="translate(932.921875 0)"/>
     <use xlink:href="#DejaVuSans-3" transform="translate(994.453125 0)"/>
     <use xlink:href="#DejaVuSans-2f" transform="translate(1026.234375 0)"/>
     <use xlink:href="#DejaVuSans-4c" transform="translate(1081.953125 0)"/>
     <use xlink:href="#DejaVuSans-51" transform="translate(1109.734375 0)"/>
     <use xlink:href="#DejaVuSans-4e" transform="translate(1173.109375 0)"/>
    </g>
   </g>
   <g id="text_3">
    <!--  Fully Linked (Overall) -->
    <g transform="translate(299.179824 47.662716) scale(0.1 -0.1)">
     <defs>
      <path id="DejaVuSans-29" d="M 628 4666 
L 3309 4666 
L 3309 4134 
L 1259 4134 
L 1259 2759 
L 3109 2759 
L 3109 2228 
L 1259 2228 
L 1259 0 
L 628 0 
L 628 4666 
z
" transform="scale(0.015625)"/>
      <path id="DejaVuSans-58" d="M 544 1381 
L 544 3500 
L 1119 3500 
L 1119 1403 
Q 1119 906 1312 657 
Q 1506 409 1894 409 
Q 2359 409 2629 706 
Q 2900 1003 2900 1516 
L 2900 3500 
L 3475 3500 
L 3475 0 
L 2900 0 
L 2900 538 
Q 2691 219 2414 64 
Q 2138 -91 1772 -91 
Q 1169 -91 856 284 
Q 544 659 544 1381 
z
M 1991 3584 
L 1991 3584 
z
" transform="scale(0.015625)"/>
      <path id="DejaVuSans-5c" d="M 2059 -325 
Q 1816 -950 1584 -1140 
Q 1353 -1331 966 -1331 
L 506 -1331 
L 506 -850 
L 844 -850 
Q 1081 -850 1212 -737 
Q 1344 -625 1503 -206 
L 1606 56 
L 191 3500 
L 800 3500 
L 1894 763 
L 2988 3500 
L 3597 3500 
L 2059 -325 
z
" transform="scale(0.015625)"/>
      <path id="DejaVuSans-b" d="M 1984 4856 
Q 1566 4138 1362 3434 
Q 1159 2731 1159 2009 
Q 1159 1288 1364 580 
Q 1569 -128 1984 -844 
L 1484 -844 
Q 1016 -109 783 600 
Q 550 1309 550 2009 
Q 550 2706 781 3412 
Q 1013 4119 1484 4856 
L 1984 4856 
z
" transform="scale(0.015625)"/>
      <path id="DejaVuSans-32" d="M 2522 4238 
Q 1834 4238 1429 3725 
Q 1025 3213 1025 2328 
Q 1025 1447 1429 934 
Q 1834 422 2522 422 
Q 3209 422 3611 934 
Q 4013 1447 4013 2328 
Q 4013 3213 3611 3725 
Q 3209 4238 2522 4238 
z
M 2522 4750 
Q 3503 4750 4090 4092 
Q 4678 3434 4678 2328 
Q 4678 1225 4090 567 
Q 3503 -91 2522 -91 
Q 1538 -91 948 565 
Q 359 1222 359 2328 
Q 359 3434 948 4092 
Q 1538 4750 2522 4750 
z
" transform="scale(0.015625)"/>
      <path id="DejaVuSans-59" d="M 191 3500 
L 800 3500 
L 1894 563 
L 2988 3500 
L 3597 3500 
L 2284 0 
L 1503 0 
L 191 3500 
z
" transform="scale(0.015625)"/>
      <path id="DejaVuSans-55" d="M 2631 2963 
Q 2534 3019 2420 3045 
Q 2306 3072 2169 3072 
Q 1681 3072 1420 2755 
Q 1159 2438 1159 1844 
L 1159 0 
L 581 0 
L 581 3500 
L 1159 3500 
L 1159 2956 
Q 1341 3275 1631 3429 
Q 1922 3584 2338 3584 
Q 2397 3584 2469 3576 
Q 2541 3569 2628 3553 
L 2631 2963 
z
" transform="scale(0.015625)"/>
      <path id="DejaVuSans-44" d="M 2194 1759 
Q 1497 1759 1228 1600 
Q 959 1441 959 1056 
Q 959 750 1161 570 
Q 1363 391 1709 391 
Q 2188 391 2477 730 
Q 2766 1069 2766 1631 
L 2766 1759 
L 2194 1759 
z
M 3341 1997 
L 3341 0 
L 2766 0 
L 2766 531 
Q 2569 213 2275 61 
Q 1981 -91 1556 -91 
Q 1019 -91 701 211 
Q 384 513 384 1019 
Q 384 1609 779 1909 
Q 1175 2209 1959 2209 
L 2766 2209 
L 2766 2266 
Q 2766 2663 2505 2880 
Q 2244 3097 1772 3097 
Q 1472 3097 1187 3025 
Q 903 2953 641 2809 
L 641 3341 
Q 956 3463 1253 3523 
Q 1550 3584 1831 3584 
Q 2591 3584 2966 3190 
Q 3341 2797 3341 1997 
z
" transform="scale(0.015625)"/>
      <path id="DejaVuSans-c" d="M 513 4856 
L 1013 4856 
Q 1481 4119 1714 3412 
Q 1947 2706 1947 2009 
Q 1947 1309 1714 600 
Q 1481 -109 1013 -844 
L 513 -844 
Q 928 -128 1133 580 
Q 1338 1288 1338 2009 
Q 1338 2731 1133 3434 
Q 928 4138 513 4856 
z
" transform="scale(0.015625)"/>
     </defs>
     <use xlink:href="#DejaVuSans-3"/>
     <use xlink:href="#DejaVuSans-29" transform="translate(31.78125 0)"/>
     <use xlink:href="#DejaVuSans-58" transform="translate(83.828125 0)"/>
     <use xlink:href="#DejaVuSans-4f" transform="translate(147.203125 0)"/>
     <use xlink:href="#DejaVuSans-4f" transform="translate(174.984375 0)"/>
     <use xlink:href="#DejaVuSans-5c" transform="translate(202.765625 0)"/>
     <use xlink:href="#DejaVuSans-3" transform="translate(261.953125 0)"/>
     <use xlink:href="#DejaVuSans-2f" transform="translate(293.734375 0)"/>
     <use xlink:href="#DejaVuSans-4c" transform="translate(349.453125 0)"/>
     <use xlink:href="#DejaVuSans-51" transform="translate(377.234375 0)"/>
     <use xlink:href="#DejaVuSans-4e" transform="translate(440.609375 0)"/>
     <use xlink:href="#DejaVuSans-48" transform="translate(494.953125 0)"/>
     <use xlink:href="#DejaVuSans-47" transform="translate(556.484375 0)"/>
     <use xlink:href="#DejaVuSans-3" transform="translate(619.96875 0)"/>
     <use xlink:href="#DejaVuSans-b" transform="translate(651.75 0)"/>
     <use xlink:href="#DejaVuSans-32" transform="translate(690.765625 0)"/>
     <use xlink:href="#DejaVuSans-59" transform="translate(769.484375 0)"/>
     <use xlink:href="#DejaVuSans-48" transform="translate(828.671875 0)"/>
     <use xlink:href="#DejaVuSans-55" transform="translate(890.203125 0)"/>
     <use xlink:href="#DejaVuSans-44" transform="translate(931.3125 0)"/>
     <use xlink:href="#DejaVuSans-4f" transform="translate(992.59375 0)"/>
     <use xlink:href="#DejaVuSans-4f" transform="translate(1020.375 0)"/>
     <use xlink:href="#DejaVuSans-c" transform="translate(1048.15625 0)"/>
    </g>
   </g>
   <g id="text_4">
    <!-- 48.1% -->
    <g transform="translate(157.647126 126.892628) scale(0.08 -0.08)">
     <defs>
      <path id="DejaVuSans-Bold-17" d="M 2356 3675 
L 1038 1722 
L 2356 1722 
L 2356 3675 
z
M 2156 4666 
L 3494 4666 
L 3494 1722 
L 4159 1722 
L 4159 850 
L 3494 850 
L 3494 0 
L 2356 0 
L 2356 850 
L 288 850 
L 288 1881 
L 2156 4666 
z
" transform="scale(0.015625)"/>
      <path id="DejaVuSans-Bold-1b" d="M 2228 2088 
Q 1891 2088 1709 1903 
Q 1528 1719 1528 1375 
Q 1528 1031 1709 848 
Q 1891 666 2228 666 
Q 2563 666 2741 848 
Q 2919 1031 2919 1375 
Q 2919 1722 2741 1905 
Q 2563 2088 2228 2088 
z
M 1350 2484 
Q 925 2613 709 2878 
Q 494 3144 494 3541 
Q 494 4131 934 4440 
Q 1375 4750 2228 4750 
Q 3075 4750 3515 4442 
Q 3956 4134 3956 3541 
Q 3956 3144 3739 2878 
Q 3522 2613 3097 2484 
Q 3572 2353 3814 2058 
Q 4056 1763 4056 1313 
Q 4056 619 3595 264 
Q 3134 -91 2228 -91 
Q 1319 -91 855 264 
Q 391 619 391 1313 
Q 391 1763 633 2058 
Q 875 2353 1350 2484 
z
M 1631 3419 
Q 1631 3141 1786 2991 
Q 1941 2841 2228 2841 
Q 2509 2841 2662 2991 
Q 2816 3141 2816 3419 
Q 2816 3697 2662 3845 
Q 2509 3994 2228 3994 
Q 1941 3994 1786 3844 
Q 1631 3694 1631 3419 
z
" transform="scale(0.015625)"/>
      <path id="DejaVuSans-Bold-11" d="M 653 1209 
L 1778 1209 
L 1778 0 
L 653 0 
L 653 1209 
z
" transform="scale(0.015625)"/>
      <path id="DejaVuSans-Bold-14" d="M 750 831 
L 1813 831 
L 1813 3847 
L 722 3622 
L 722 4441 
L 1806 4666 
L 2950 4666 
L 2950 831 
L 4013 831 
L 4013 0 
L 750 0 
L 750 831 
z
" transform="scale(0.015625)"/>
      <path id="DejaVuSans-Bold-8" d="M 4959 1925 
Q 4738 1925 4616 1733 
Q 4494 1541 4494 1184 
Q 4494 825 4614 633 
Q 4734 441 4959 441 
Q 5184 441 5303 633 
Q 5422 825 5422 1184 
Q 5422 1541 5301 1733 
Q 5181 1925 4959 1925 
z
M 4959 2450 
Q 5541 2450 5875 2112 
Q 6209 1775 6209 1184 
Q 6209 594 5875 251 
Q 5541 -91 4959 -91 
Q 4378 -91 4042 251 
Q 3706 594 3706 1184 
Q 3706 1772 4042 2111 
Q 4378 2450 4959 2450 
z
M 2094 -91 
L 1403 -91 
L 4319 4750 
L 5013 4750 
L 2094 -91 
z
M 1453 4750 
Q 2034 4750 2367 4411 
Q 2700 4072 2700 3481 
Q 2700 2891 2367 2550 
Q 2034 2209 1453 2209 
Q 872 2209 539 2550 
Q 206 2891 206 3481 
Q 206 4072 539 4411 
Q 872 4750 1453 4750 
z
M 1453 4225 
Q 1228 4225 1106 4031 
Q 984 3838 984 3481 
Q 984 3122 1106 2926 
Q 1228 2731 1453 2731 
Q 1678 2731 1798 2926 
Q 1919 3122 1919 3481 
Q 1919 3838 1797 4031 
Q 1675 4225 1453 4225 
z
" transform="scale(0.015625)"/>
     </defs>
     <use xlink:href="#DejaVuSans-Bold-17"/>
     <use xlink:href="#DejaVuSans-Bold-1b" transform="translate(69.578125 0)"/>
     <use xlink:href="#DejaVuSans-Bold-11" transform="translate(139.15625 0)"/>
     <use xlink:href="#DejaVuSans-Bold-14" transform="translate(177.140625 0)"/>
     <use xlink:href="#DejaVuSans-Bold-8" transform="translate(246.71875 0)"/>
    </g>
    <!-- (51) -->
    <g transform="translate(162.301501 136.49419) scale(0.08 -0.08)">
     <defs>
      <path id="DejaVuSans-Bold-b" d="M 2413 -844 
L 1484 -844 
Q 1006 -72 778 623 
Q 550 1319 550 2003 
Q 550 2688 779 3389 
Q 1009 4091 1484 4856 
L 2413 4856 
Q 2013 4116 1813 3408 
Q 1613 2700 1613 2009 
Q 1613 1319 1811 609 
Q 2009 -100 2413 -844 
z
" transform="scale(0.015625)"/>
      <path id="DejaVuSans-Bold-18" d="M 678 4666 
L 3669 4666 
L 3669 3781 
L 1638 3781 
L 1638 3059 
Q 1775 3097 1914 3117 
Q 2053 3138 2203 3138 
Q 3056 3138 3531 2711 
Q 4006 2284 4006 1522 
Q 4006 766 3489 337 
Q 2972 -91 2053 -91 
Q 1656 -91 1267 -14 
Q 878 63 494 219 
L 494 1166 
Q 875 947 1217 837 
Q 1559 728 1863 728 
Q 2300 728 2551 942 
Q 2803 1156 2803 1522 
Q 2803 1891 2551 2103 
Q 2300 2316 1863 2316 
Q 1603 2316 1309 2248 
Q 1016 2181 678 2041 
L 678 4666 
z
" transform="scale(0.015625)"/>
      <path id="DejaVuSans-Bold-c" d="M 513 -844 
Q 913 -100 1113 609 
Q 1313 1319 1313 2009 
Q 1313 2700 1113 3408 
Q 913 4116 513 4856 
L 1441 4856 
Q 1916 4091 2145 3389 
Q 2375 2688 2375 2003 
Q 2375 1319 2147 623 
Q 1919 -72 1441 -844 
L 513 -844 
z
" transform="scale(0.015625)"/>
     </defs>
     <use xlink:href="#DejaVuSans-Bold-b"/>
     <use xlink:href="#DejaVuSans-Bold-18" transform="translate(45.703125 0)"/>
     <use xlink:href="#DejaVuSans-Bold-14" transform="translate(115.28125 0)"/>
     <use xlink:href="#DejaVuSans-Bold-c" transform="translate(184.859375 0)"/>
    </g>
   </g>
   <g id="text_5">
    <!-- 31.1% -->
    <g transform="translate(263.835222 169.958197) scale(0.08 -0.08)">
     <defs>
      <path id="DejaVuSans-Bold-16" d="M 2981 2516 
Q 3453 2394 3698 2092 
Q 3944 1791 3944 1325 
Q 3944 631 3412 270 
Q 2881 -91 1863 -91 
Q 1503 -91 1142 -33 
Q 781 25 428 141 
L 428 1069 
Q 766 900 1098 814 
Q 1431 728 1753 728 
Q 2231 728 2486 893 
Q 2741 1059 2741 1369 
Q 2741 1688 2480 1852 
Q 2219 2016 1709 2016 
L 1228 2016 
L 1228 2791 
L 1734 2791 
Q 2188 2791 2409 2933 
Q 2631 3075 2631 3366 
Q 2631 3634 2415 3781 
Q 2200 3928 1806 3928 
Q 1516 3928 1219 3862 
Q 922 3797 628 3669 
L 628 4550 
Q 984 4650 1334 4700 
Q 1684 4750 2022 4750 
Q 2931 4750 3382 4451 
Q 3834 4153 3834 3553 
Q 3834 3144 3618 2883 
Q 3403 2622 2981 2516 
z
" transform="scale(0.015625)"/>
     </defs>
     <use xlink:href="#DejaVuSans-Bold-16"/>
     <use xlink:href="#DejaVuSans-Bold-14" transform="translate(69.578125 0)"/>
     <use xlink:href="#DejaVuSans-Bold-11" transform="translate(139.15625 0)"/>
     <use xlink:href="#DejaVuSans-Bold-14" transform="translate(177.140625 0)"/>
     <use xlink:href="#DejaVuSans-Bold-8" transform="translate(246.71875 0)"/>
    </g>
    <!-- (33) -->
    <g transform="translate(268.489597 179.55976) scale(0.08 -0.08)">
     <use xlink:href="#DejaVuSans-Bold-b"/>
     <use xlink:href="#DejaVuSans-Bold-16" transform="translate(45.703125 0)"/>
     <use xlink:href="#DejaVuSans-Bold-16" transform="translate(115.28125 0)"/>
     <use xlink:href="#DejaVuSans-Bold-c" transform="translate(184.859375 0)"/>
    </g>
   </g>
   <g id="text_6">
    <!-- 20.8% -->
    <g transform="translate(254.720212 82.40269) scale(0.08 -0.08)">
     <defs>
      <path id="DejaVuSans-Bold-15" d="M 1844 884 
L 3897 884 
L 3897 0 
L 506 0 
L 506 884 
L 2209 2388 
Q 2438 2594 2547 2791 
Q 2656 2988 2656 3200 
Q 2656 3528 2436 3728 
Q 2216 3928 1850 3928 
Q 1569 3928 1234 3808 
Q 900 3688 519 3450 
L 519 4475 
Q 925 4609 1322 4679 
Q 1719 4750 2100 4750 
Q 2938 4750 3402 4381 
Q 3866 4013 3866 3353 
Q 3866 2972 3669 2642 
Q 3472 2313 2841 1759 
L 1844 884 
z
" transform="scale(0.015625)"/>
      <path id="DejaVuSans-Bold-13" d="M 2944 2338 
Q 2944 3213 2780 3570 
Q 2616 3928 2228 3928 
Q 1841 3928 1675 3570 
Q 1509 3213 1509 2338 
Q 1509 1453 1675 1090 
Q 1841 728 2228 728 
Q 2613 728 2778 1090 
Q 2944 1453 2944 2338 
z
M 4147 2328 
Q 4147 1169 3647 539 
Q 3147 -91 2228 -91 
Q 1306 -91 806 539 
Q 306 1169 306 2328 
Q 306 3491 806 4120 
Q 1306 4750 2228 4750 
Q 3147 4750 3647 4120 
Q 4147 3491 4147 2328 
z
" transform="scale(0.015625)"/>
     </defs>
     <use xlink:href="#DejaVuSans-Bold-15"/>
     <use xlink:href="#DejaVuSans-Bold-13" transform="translate(69.578125 0)"/>
     <use xlink:href="#DejaVuSans-Bold-11" transform="translate(139.15625 0)"/>
     <use xlink:href="#DejaVuSans-Bold-1b" transform="translate(177.140625 0)"/>
     <use xlink:href="#DejaVuSans-Bold-8" transform="translate(246.71875 0)"/>
    </g>
    <!-- (22) -->
    <g transform="translate(259.374587 92.004252) scale(0.08 -0.08)">
     <use xlink:href="#DejaVuSans-Bold-b"/>
     <use xlink:href="#DejaVuSans-Bold-15" transform="translate(45.703125 0)"/>
     <use xlink:href="#DejaVuSans-Bold-15" transform="translate(115.28125 0)"/>
     <use xlink:href="#DejaVuSans-Bold-c" transform="translate(184.859375 0)"/>
    </g>
   </g>
   <g id="text_7">
    <!-- Tool Requirements Snapshot -->
    <g transform="translate(146.666809 16.318125) scale(0.12 -0.12)">
     <defs>
      <path id="DejaVuSans-50" d="M 3328 2828 
Q 3544 3216 3844 3400 
Q 4144 3584 4550 3584 
Q 5097 3584 5394 3201 
Q 5691 2819 5691 2113 
L 5691 0 
L 5113 0 
L 5113 2094 
Q 5113 2597 4934 2840 
Q 4756 3084 4391 3084 
Q 3944 3084 3684 2787 
Q 3425 2491 3425 1978 
L 3425 0 
L 2847 0 
L 2847 2094 
Q 2847 2600 2669 2842 
Q 2491 3084 2119 3084 
Q 1678 3084 1418 2786 
Q 1159 2488 1159 1978 
L 1159 0 
L 581 0 
L 581 3500 
L 1159 3500 
L 1159 2956 
Q 1356 3278 1631 3431 
Q 1906 3584 2284 3584 
Q 2666 3584 2933 3390 
Q 3200 3197 3328 2828 
z
" transform="scale(0.015625)"/>
      <path id="DejaVuSans-36" d="M 3425 4513 
L 3425 3897 
Q 3066 4069 2747 4153 
Q 2428 4238 2131 4238 
Q 1616 4238 1336 4038 
Q 1056 3838 1056 3469 
Q 1056 3159 1242 3001 
Q 1428 2844 1947 2747 
L 2328 2669 
Q 3034 2534 3370 2195 
Q 3706 1856 3706 1288 
Q 3706 609 3251 259 
Q 2797 -91 1919 -91 
Q 1588 -91 1214 -16 
Q 841 59 441 206 
L 441 856 
Q 825 641 1194 531 
Q 1563 422 1919 422 
Q 2459 422 2753 634 
Q 3047 847 3047 1241 
Q 3047 1584 2836 1778 
Q 2625 1972 2144 2069 
L 1759 2144 
Q 1053 2284 737 2584 
Q 422 2884 422 3419 
Q 422 4038 858 4394 
Q 1294 4750 2059 4750 
Q 2388 4750 2728 4690 
Q 3069 4631 3425 4513 
z
" transform="scale(0.015625)"/>
      <path id="DejaVuSans-53" d="M 1159 525 
L 1159 -1331 
L 581 -1331 
L 581 3500 
L 1159 3500 
L 1159 2969 
Q 1341 3281 1617 3432 
Q 1894 3584 2278 3584 
Q 2916 3584 3314 3078 
Q 3713 2572 3713 1747 
Q 3713 922 3314 415 
Q 2916 -91 2278 -91 
Q 1894 -91 1617 61 
Q 1341 213 1159 525 
z
M 3116 1747 
Q 3116 2381 2855 2742 
Q 2594 3103 2138 3103 
Q 1681 3103 1420 2742 
Q 1159 2381 1159 1747 
Q 1159 1113 1420 752 
Q 1681 391 2138 391 
Q 2594 391 2855 752 
Q 3116 1113 3116 1747 
z
" transform="scale(0.015625)"/>
     </defs>
     <use xlink:href="#DejaVuSans-37"/>
     <use xlink:href="#DejaVuSans-52" transform="translate(44.09375 0)"/>
     <use xlink:href="#DejaVuSans-52" transform="translate(105.28125 0)"/>
     <use xlink:href="#DejaVuSans-4f" transform="translate(166.46875 0)"/>
     <use xlink:href="#DejaVuSans-3" transform="translate(194.25 0)"/>
     <use xlink:href="#DejaVuSans-35" transform="translate(226.03125 0)"/>
     <use xlink:href="#DejaVuSans-48" transform="translate(291.03125 0)"/>
     <use xlink:href="#DejaVuSans-54" transform="translate(352.5625 0)"/>
     <use xlink:href="#DejaVuSans-58" transform="translate(416.046875 0)"/>
     <use xlink:href="#DejaVuSans-4c" transform="translate(479.421875 0)"/>
     <use xlink:href="#DejaVuSans-55" transform="translate(507.203125 0)"/>
     <use xlink:href="#DejaVuSans-48" transform="translate(546.109375 0)"/>
     <use xlink:href="#DejaVuSans-50" transform="translate(607.640625 0)"/>
     <use xlink:href="#DejaVuSans-48" transform="translate(705.046875 0)"/>
     <use xlink:href="#DejaVuSans-51" transform="translate(766.578125 0)"/>
     <use xlink:href="#DejaVuSans-57" transform="translate(829.953125 0)"/>
     <use xlink:href="#DejaVuSans-56" transform="translate(869.15625 0)"/>
     <use xlink:href="#DejaVuSans-3" transform="translate(921.25 0)"/>
     <use xlink:href="#DejaVuSans-36" transform="translate(953.03125 0)"/>
     <use xlink:href="#DejaVuSans-51" transform="translate(1016.515625 0)"/>
     <use xlink:href="#DejaVuSans-44" transform="translate(1079.890625 0)"/>
     <use xlink:href="#DejaVuSans-53" transform="translate(1141.171875 0)"/>
     <use xlink:href="#DejaVuSans-56" transform="translate(1204.65625 0)"/>
     <use xlink:href="#DejaVuSans-4b" transform="translate(1256.75 0)"/>
     <use xlink:href="#DejaVuSans-52" transform="translate(1320.125 0)"/>
     <use xlink:href="#DejaVuSans-57" transform="translate(1381.3125 0)"/>
    </g>
   </g>
  </g>
 </g>
</svg>
